<?xml version="1.0" encoding="UTF-8"?>
<svg id="Layer_1" data-name="Layer 1" xmlns="http://www.w3.org/2000/svg" viewBox="0 0 224.09 183.34">
  <g id="Icon_feather-mail" data-name="Icon feather-mail">
    <g id="Path_10" data-name="Path 10">
      <path d="M30.56,183.34C13.75,183.3,.05,169.6,0,152.82V30.56C.05,13.74,13.75,.05,30.53,0H193.53c16.81,.05,30.51,13.74,30.56,30.53v122.26c-.05,16.81-13.75,30.51-30.52,30.56H30.56Zm.01-162.97c-5.61,.03-10.18,4.61-10.2,10.22v122.2c.02,5.58,4.6,10.17,10.22,10.19H193.53c5.58-.01,10.17-4.6,10.19-10.22V30.56c-.01-5.59-4.6-10.17-10.22-10.19H30.57Z"/>
    </g>
    <g id="Path_11" data-name="Path 11">
      <path d="M112.05,112.04c-2.04,0-4.09-.62-5.84-1.84L4.35,38.9C-.26,35.68-1.38,29.32,1.84,24.72c3.23-4.6,9.57-5.73,14.19-2.5L112.05,89.42,208.06,22.21c4.62-3.21,10.97-2.1,14.18,2.5,3.23,4.61,2.11,10.96-2.5,14.19L117.89,110.2c-1.75,1.23-3.8,1.84-5.84,1.84Z"/>
    </g>
  </g>
</svg>