<?xml version="1.0" encoding="UTF-8"?>
<svg id="Layer_1" data-name="Layer 1" xmlns="http://www.w3.org/2000/svg" viewBox="0 0 371.22 371.27">
  <path id="Icon_metro-facebook" data-name="Icon metro-facebook" d="M309.36,0H61.87C27.7,0,0,27.7,0,61.87c0,0,0,0,0,.01v247.48c0,34.17,27.69,61.87,61.85,61.88h123.76V208.81h-46.4v-46.4h46.4v-34.8c0-32.03,25.97-58,58-58h58v46.4h-58c-6.41,0-11.6,5.19-11.6,11.6h0v34.8h63.78l-11.6,46.4h-52.18v162.46h77.34c34.17,0,61.87-27.7,61.87-61.87h0V61.88C371.23,27.71,343.54,0,309.37,0c0,0,0,0-.01,0Z"/>
</svg>