<?xml version="1.0" encoding="UTF-8"?>
<svg id="Layer_1" data-name="Layer 1" xmlns="http://www.w3.org/2000/svg" viewBox="0 0 280.66 280.6">
  <path id="Icon_awesome-instagram" data-name="Icon awesome-instagram" d="M140.35,68.31c-39.74,0-71.95,32.22-71.95,71.95s32.22,71.95,71.95,71.95,71.95-32.22,71.95-71.95c.06-39.68-32.05-71.89-71.72-71.95-.08,0-.15,0-.23,0Zm0,118.73c-25.83,0-46.78-20.94-46.78-46.78,0-25.83,20.94-46.78,46.78-46.78,25.83,0,46.78,20.94,46.78,46.78h0c-.05,25.81-20.96,46.73-46.78,46.78Zm91.68-121.67c0,9.27-7.51,16.78-16.78,16.78s-16.78-7.51-16.78-16.78,7.51-16.77,16.77-16.78c9.25-.02,16.76,7.45,16.79,16.7,0,.03,0,.05,0,.08Zm47.64,17.06c.46-21.81-7.68-42.93-22.67-58.78C241.11,8.72,220.02,.59,198.22,.99,175.06-.33,105.59-.33,82.44,.99c-21.79-.43-42.89,7.68-58.78,22.6C8.7,39.47,.56,60.57,.99,82.38-.33,105.53-.33,175,.99,198.16c-.46,21.81,7.68,42.93,22.67,58.78,15.9,14.92,36.98,23.05,58.78,22.67,23.16,1.32,92.63,1.32,115.78,0,21.81,.46,42.93-7.68,58.78-22.67,14.93-15.89,23.07-36.98,22.67-58.78,1.32-23.16,1.32-92.56,0-115.73h0Zm-29.92,140.56c-4.81,12.23-14.49,21.9-26.72,26.72-18.47,7.33-62.34,5.64-82.72,5.64s-64.31,1.63-82.72-5.64c-12.23-4.81-21.9-14.49-26.72-26.72-7.33-18.47-5.64-62.34-5.64-82.72s-1.63-64.31,5.64-82.72c4.81-12.23,14.49-21.9,26.72-26.72,18.47-7.33,62.34-5.64,82.72-5.64s64.31-1.63,82.72,5.64c12.23,4.81,21.9,14.49,26.72,26.72,7.33,18.47,5.64,62.34,5.64,82.72s1.68,64.31-5.64,82.72Z"/>
</svg>