<?xml version="1.0" encoding="UTF-8"?>
<svg id="Layer_1" data-name="Layer 1" xmlns="http://www.w3.org/2000/svg" viewBox="0 0 421.06 106.89">
  <g id="Logo">
    <path id="Path_1" data-name="Path 1" d="M95.29,54.18c0,3.41-.21,6.81-.63,10.2-.42,3.48-1.11,6.93-2.06,10.31-.96,3.41-2.25,6.73-3.86,9.89-1.67,3.28-3.79,6.31-6.29,9.01-2.42,2.73-5.26,5.05-8.41,6.9-2.93,1.69-6.06,3.02-9.31,3.97-3.21,.93-6.49,1.57-9.81,1.9-3.19,.3-6.51,.49-9.84,.49H0v-10.91H7.5V12.69H0V1.79H45.11c2.69,0,5.38,.05,8,.19,2.76,.14,5.51,.48,8.22,1.02,2.8,.55,5.53,1.37,8.17,2.47,2.77,1.17,5.4,2.65,7.84,4.41,3.69,2.65,6.81,6,9.18,9.87,2.22,3.61,4,7.47,5.32,11.5,1.27,3.9,2.18,7.91,2.71,11.98h0c.48,3.63,.73,7.3,.75,10.96ZM18.39,95.94h26.72c2.95,0,5.89-.14,8.75-.41,2.65-.27,5.28-.78,7.84-1.51,2.41-.71,4.73-1.7,6.92-2.95,2.17-1.29,4.13-2.91,5.79-4.81,1.84-1.98,3.4-4.21,4.63-6.62,1.28-2.52,2.32-5.17,3.08-7.89,.79-2.84,1.37-5.74,1.73-8.66,.77-6.13,.72-12.34-.13-18.46-.45-3.4-1.2-6.75-2.26-10.01-1.05-3.21-2.47-6.28-4.23-9.15-1.62-2.64-3.75-4.94-6.27-6.76-1.75-1.27-3.64-2.33-5.64-3.16-1.96-.81-4-1.44-6.08-1.86-2.21-.42-4.44-.69-6.69-.81-2.45-.11-4.95-.18-7.45-.18H18.39V95.94Z"/>
    <path id="Path_2" data-name="Path 2" d="M143.79,26.35v10.91h-3.25c-4.63-.25-9.24,.78-13.33,2.97-3.42,2.49-6.02,5.95-7.45,9.94v45.75h7.5v10.91h-25.87v-10.91h7.48V39.08h-7.48v-10.89h18.37v3.95c.56-.41,1.14-.81,1.7-1.16,5.81-3.28,12.42-4.88,19.09-4.62h3.24Z"/>
    <path id="Path_3" data-name="Path 3" d="M175.77,95.94v10.91h-25.88v-10.91h7.49V39.08h-7.49v-10.89h18.38V95.94h7.5Zm-7.5-73.81h-10.91V3.94h10.91V22.13Z"/>
    <path id="Path_4" data-name="Path 4" d="M260.25,65.85c.03,5.18-.6,10.35-1.88,15.37-1.21,4.82-3.39,9.35-6.41,13.3-3.05,3.88-6.97,6.99-11.44,9.08-5.14,2.3-10.72,3.41-16.34,3.27-2.73-.01-5.45-.38-8.09-1.09-2.69-.73-5.29-1.75-7.75-3.06-2.58-1.37-4.97-3.09-7.09-5.11-.37-.37-.74-.74-1.1-1.14v8.59h-18.39v-10.91h7.49V10.91h-7.49V0h18.39V34.19c2.39-2.41,5.18-4.39,8.25-5.85,5.04-2.47,10.57-3.75,16.18-3.76,5.51-.1,10.97,1.11,15.91,3.55,4.4,2.25,8.25,5.46,11.25,9.39,2.97,3.98,5.17,8.49,6.47,13.28,1.36,4.9,2.04,9.97,2.03,15.05Zm-24.41,27.92c2.94-1.37,5.52-3.42,7.53-5.97,2.1-2.77,3.62-5.94,4.45-9.31,1.04-4.13,1.56-8.38,1.53-12.63,.01-4.1-.54-8.18-1.63-12.13-.93-3.48-2.51-6.74-4.65-9.64-2.03-2.64-4.62-4.79-7.58-6.29-3.4-1.64-7.14-2.44-10.91-2.32-3.96,0-7.87,.91-11.42,2.66-3.38,1.62-6.2,4.19-8.12,7.41l-.32,.53c-1.25,2.16-2.19,4.48-2.8,6.9-1.04,4.13-1.55,8.38-1.52,12.63-.01,4.1,.54,8.17,1.63,12.12,.75,2.44,1.74,4.79,2.96,7.04,1.09,1.78,2.37,3.44,3.8,4.95,1.4,1.34,2.97,2.47,4.68,3.37,1.73,.93,3.57,1.66,5.47,2.18,1.71,.47,3.48,.71,5.26,.72,4,.12,7.98-.64,11.66-2.23h0Z"/>
    <path id="Path_5" data-name="Path 5" d="M340.3,94.13v10.91h-18.37l-.02-8.67c-7.62,6.68-17.38,10.4-27.51,10.5-3.4,0-6.79-.46-10.06-1.37-3.33-.92-6.43-2.5-9.14-4.64-2.69-2.12-4.89-4.81-6.44-7.87-1.67-3.43-2.5-7.22-2.42-11.03,0-19.79,20.33-24.11,27.99-25.73,11.07-2.13,23.56-4.56,27.59-5.46,.06-2.51-.41-5-1.38-7.31-.77-1.73-1.98-3.24-3.5-4.37-1.79-1.27-3.81-2.17-5.95-2.66-5.72-1.3-11.66-1.25-17.36,.12-2.44,.59-4.74,1.63-6.79,3.06-1.86,1.37-3.4,3.13-4.48,5.17-1.27,2.47-1.98,5.2-2.07,7.98l-.22,3.27-10.88-.72,.22-3.25c.2-4.39,1.36-8.68,3.42-12.57,1.88-3.44,4.5-6.41,7.67-8.71,3.16-2.24,6.71-3.86,10.47-4.79,7.44-1.81,15.19-1.86,22.65-.14,3.5,.83,6.81,2.32,9.75,4.41,3.02,2.21,5.42,5.16,6.97,8.57,1.69,3.86,2.51,8.05,2.41,12.26v43.06h7.49Zm-43.84-27.25c-15.96,3.39-19.24,8.48-19.24,15.05-.07,2.1,.35,4.18,1.23,6.08,.84,1.66,2.04,3.12,3.5,4.27,1.6,1.24,3.42,2.16,5.38,2.69,2.3,.65,4.68,.98,7.07,.97,4.06-.04,8.06-.87,11.8-2.46,6.02-2.83,11.26-7.09,15.24-12.42h0l.47-.56v-18.65c-4.9,1.04-13.41,2.72-25.45,5.01Z"/>
    <path id="Path_6" data-name="Path 6" d="M372.22,95.94v10.91h-25.87v-10.91h7.48V12.68h-7.48V1.78h18.38V95.94h7.49Z"/>
    <path id="Path_7" data-name="Path 7" d="M404.12,95.94v10.91h-25.87v-10.91h7.48V12.68h-7.48V1.78h18.38V95.94h7.49Z"/>
    <path id="Path_8" data-name="Path 8" d="M421.06,88.81v18.04h-10.91v-18.04h10.91Z"/>
  </g>
</svg>